<svg id="Calque_1" data-name="Calque 1" xmlns="http://www.w3.org/2000/svg" xmlns:xlink="http://www.w3.org/1999/xlink" viewBox="0 0 455.54 127.98"><defs><style>.cls-1{fill:url(#Dégradé_sans_nom_24);}.cls-2{fill:#fff;}.cls-3{font-size:31px;fill:#7399a6;font-family:Montserrat-Medium, Montserrat;letter-spacing:0.15em;}</style><linearGradient id="Dégradé_sans_nom_24" x1="177.48" y1="-3.78" x2="38.03" y2="131.74" gradientTransform="translate(-0.01 0.01)" gradientUnits="userSpaceOnUse"><stop offset="0" stop-color="#ffb400"/><stop offset="1" stop-color="#cd135f"/></linearGradient></defs><title>Logo-NGI LEDGER-rgb</title><path class="cls-1" d="M212.63,60.82l-9.07-9a7.61,7.61,0,0,1-2.25-5.41V25.23a11.09,11.09,0,0,0-11-11h-165a11.07,11.07,0,0,0-11,11.05v77.52a11.09,11.09,0,0,0,11.06,11h165a11.08,11.08,0,0,0,11.05-11V84.5a7.65,7.65,0,0,1,2.24-5.4L212.64,70A6.49,6.49,0,0,0,212.63,60.82Z"/><path class="cls-2" d="M176,32.12h0a7.37,7.37,0,0,1,7.37,7.38v49A7.37,7.37,0,0,1,176,95.86h0a7.37,7.37,0,0,1-7.38-7.37v-49A7.37,7.37,0,0,1,176,32.12Z"/><path class="cls-2" d="M152.12,63H144a7.56,7.56,0,0,0-7.62,6.89,7.38,7.38,0,0,0,7.36,7.86h0a1.16,1.16,0,0,1,1.11,1.5,6.49,6.49,0,0,1-4.54,4.33,25.75,25.75,0,0,1-6.61.82A21.75,21.75,0,0,1,123,81.8a18.76,18.76,0,0,1-7.33-7.24A21,21,0,0,1,113,64a21.16,21.16,0,0,1,2.64-10.65,18.27,18.27,0,0,1,7.38-7.2,22.48,22.48,0,0,1,10.84-2.55,21.6,21.6,0,0,1,12.55,3.81,6.57,6.57,0,0,0,7.75-.17,6.47,6.47,0,0,0-.31-10.45,31.79,31.79,0,0,0-5.51-2.93A39.55,39.55,0,0,0,133.11,31a38,38,0,0,0-18,4.23A31.35,31.35,0,0,0,102.55,47a32.41,32.41,0,0,0-4.5,17,32.42,32.42,0,0,0,4.5,17A31.55,31.55,0,0,0,115,92.72,37.17,37.17,0,0,0,132.83,97a46.62,46.62,0,0,0,13.76-2.1l.13,0a17,17,0,0,0,11.89-16.3v-9A6.49,6.49,0,0,0,152.12,63Z"/><path class="cls-2" d="M90.58,39.4V88.58a7.29,7.29,0,0,1-7.28,7.29H81.91a7.29,7.29,0,0,1-5.63-2.67L52.05,63.7a3,3,0,0,0-5.36,1.92v23a7.3,7.3,0,0,1-7.29,7.29h0a7.29,7.29,0,0,1-7.28-7.29V39.4a7.28,7.28,0,0,1,7.28-7.28h1.47a7.31,7.31,0,0,1,5.64,2.67L70.64,64.26A3,3,0,0,0,76,62.35v-23a7.28,7.28,0,0,1,7.28-7.28h0A7.28,7.28,0,0,1,90.58,39.4Z"/><text class="cls-3" transform="translate(239.5 71.78)">LEDGER</text></svg>